<svg width="20" height="16" viewBox="0 0 20 16" fill="none" xmlns="http://www.w3.org/2000/svg">
<path id="Vector" d="M2.1875 0.501953H17.8125C19.02 0.501953 20 1.48195 20 2.68945V13.3145C20 13.8946 19.7695 14.451 19.3593 14.8612C18.9491 15.2715 18.3927 15.502 17.8125 15.502H2.1875C1.60734 15.502 1.05094 15.2715 0.640704 14.8612C0.230468 14.451 0 13.8946 0 13.3145L0 2.68945C0 1.48195 0.98 0.501953 2.1875 0.501953ZM1.875 13.3157C1.875 13.4882 2.015 13.6282 2.1875 13.6282H17.8125C17.8954 13.6282 17.9749 13.5953 18.0335 13.5367C18.0921 13.4781 18.125 13.3986 18.125 13.3157V5.2632L10.475 9.7482C10.331 9.83283 10.167 9.87745 10 9.87745C9.83298 9.87745 9.66899 9.83283 9.525 9.7482L1.875 5.2632V13.3157ZM18.125 3.08945V2.68945C18.125 2.60657 18.0921 2.52709 18.0335 2.46848C17.9749 2.40988 17.8954 2.37695 17.8125 2.37695H2.1875C2.10462 2.37695 2.02513 2.40988 1.96653 2.46848C1.90792 2.52709 1.875 2.60657 1.875 2.68945V3.08945L10 7.85195L18.125 3.08945Z" fill="#F40080"/>
</svg>
