<svg width="22" height="23" viewBox="0 0 22 23" fill="none" xmlns="http://www.w3.org/2000/svg">
<g id="instagram" clip-path="url(#clip0_757_3858)">
<path id="Icon" d="M16.0413 5.95996H16.0505M6.41634 1.83496H15.583C18.1143 1.83496 20.1663 3.88699 20.1663 6.41829V15.585C20.1663 18.1163 18.1143 20.1683 15.583 20.1683H6.41634C3.88504 20.1683 1.83301 18.1163 1.83301 15.585V6.41829C1.83301 3.88699 3.88504 1.83496 6.41634 1.83496ZM14.6663 10.4241C14.7795 11.187 14.6492 11.9662 14.294 12.6507C13.9387 13.3353 13.3767 13.8904 12.6878 14.2372C11.9989 14.5839 11.2183 14.7046 10.4568 14.5821C9.69537 14.4595 8.99195 14.1 8.44661 13.5547C7.90126 13.0093 7.54176 12.3059 7.41924 11.5445C7.29671 10.7831 7.4174 10.0024 7.76414 9.31347C8.11088 8.62458 8.66601 8.06256 9.35058 7.70735C10.0351 7.35214 10.8143 7.22183 11.5772 7.33496C12.3554 7.45035 13.0758 7.81297 13.6321 8.36924C14.1883 8.92551 14.5509 9.64595 14.6663 10.4241Z" stroke="#F40080" stroke-width="2" stroke-linecap="round" stroke-linejoin="round"/>
</g>
<defs>
<clipPath id="clip0_757_3858">
<rect width="22" height="22" fill="white" transform="translate(0 0.00195312)"/>
</clipPath>
</defs>
</svg>
