<svg width="20" height="21" viewBox="0 0 20 21" fill="none" xmlns="http://www.w3.org/2000/svg">
<rect width="20" height="21" fill="#BABABA"/>
<g id="Per/CAPA" clip-path="url(#clip0_117_45997)">
<rect width="1440" height="4654" transform="translate(-564 -4407)" fill="#F9F9F9"/>
<g id="SE&#195;&#135;&#195;&#149;ES" clip-path="url(#clip1_117_45997)">
<g id="Footer">
<rect width="1440" height="474.002" transform="translate(-564 -227)" fill="#F3F3F3"/>
<g id="conteudo footer">
<g id="Frame 194">
<g id="Redes sociais">
<g id="Frame 2">
<path id="Vector" d="M17 2.91201C16.0832 1.98594 14.9912 1.25168 13.7876 0.752064C12.5841 0.252447 11.2931 -0.00252699 9.99 0.00201269C4.53 0.00201269 0.0800002 4.45201 0.0800002 9.91201C0.0800002 11.662 0.54 13.362 1.4 14.862L0 20.002L5.25 18.622C6.7 19.412 8.33 19.832 9.99 19.832C15.45 19.832 19.9 15.382 19.9 9.92201C19.9 7.27201 18.87 4.78201 17 2.91201ZM9.99 18.152C8.51 18.152 7.06 17.752 5.79 17.002L5.49 16.822L2.37 17.642L3.2 14.602L3 14.292C2.17775 12.979 1.74114 11.4613 1.74 9.91201C1.74 5.37201 5.44 1.67201 9.98 1.67201C12.18 1.67201 14.25 2.53201 15.8 4.09201C16.5675 4.85598 17.1757 5.76468 17.5894 6.76544C18.0031 7.7662 18.214 8.83912 18.21 9.92201C18.23 14.462 14.53 18.152 9.99 18.152ZM14.51 11.992C14.26 11.872 13.04 11.272 12.82 11.182C12.59 11.102 12.43 11.062 12.26 11.302C12.09 11.552 11.62 12.112 11.48 12.272C11.34 12.442 11.19 12.462 10.94 12.332C10.69 12.212 9.89 11.942 8.95 11.102C8.21 10.442 7.72 9.63201 7.57 9.38201C7.43 9.13201 7.55 9.00201 7.68 8.87201C7.79 8.76201 7.93 8.58201 8.05 8.44201C8.17 8.30201 8.22 8.19201 8.3 8.03201C8.38 7.86201 8.34 7.72201 8.28 7.60201C8.22 7.48201 7.72 6.26201 7.52 5.76201C7.32 5.28201 7.11 5.34201 6.96 5.33201H6.48C6.31 5.33201 6.05 5.39201 5.82 5.64201C5.6 5.89201 4.96 6.49201 4.96 7.71201C4.96 8.93201 5.85 10.112 5.97 10.272C6.09 10.442 7.72 12.942 10.2 14.012C10.79 14.272 11.25 14.422 11.61 14.532C12.2 14.722 12.74 14.692 13.17 14.632C13.65 14.562 14.64 14.032 14.84 13.452C15.05 12.872 15.05 12.382 14.98 12.272C14.91 12.162 14.76 12.112 14.51 11.992Z" fill="#F40080"/>
</g>
</g>
</g>
</g>
</g>
</g>
</g>
<defs>
<clipPath id="clip0_117_45997">
<rect width="1440" height="4654" fill="white" transform="translate(-564 -4407)"/>
</clipPath>
<clipPath id="clip1_117_45997">
<rect width="1440" height="4654" fill="white" transform="translate(-564 -4407)"/>
</clipPath>
</defs>
</svg>
