<svg width="141" height="34" viewBox="0 0 141 34" fill="none" xmlns="http://www.w3.org/2000/svg">
<g id="Group 5">
<g id="Persepolis escola">
<path id="Vector" d="M14.5381 0.694824H24.7668V2.65368H16.5853V6.44619H23.7211V8.47132H16.5853V14.8854H24.5606V16.8885H14.5381V0.694824Z" fill="#606060"/>
<path id="Vector_2" d="M41.6081 16.8875H39.2589L33.0731 8.38201H30.7534V16.8875H28.7725V0.686523H34.3913C35.4072 0.698004 36.3783 1.10669 37.0967 1.82512C37.8152 2.54354 38.2238 3.51464 38.2353 4.53058C38.2289 5.39089 37.9358 6.22449 37.4022 6.89941C36.8687 7.57433 36.1253 8.052 35.2897 8.25682L41.6081 16.8875ZM30.7534 6.41579H34.4355C34.9354 6.41579 35.415 6.21718 35.7685 5.86363C36.122 5.51009 36.3207 5.03057 36.3207 4.53058C36.3207 4.0306 36.122 3.55109 35.7685 3.19754C35.415 2.84399 34.9354 2.64537 34.4355 2.64537H30.7534V6.41579Z" fill="#606060"/>
<path id="Vector_3" d="M48.2288 16.8658C46.4379 16.4696 44.7777 15.6231 43.4053 14.4062L44.7455 12.8892C45.8562 13.8834 47.202 14.5779 48.6559 14.907C49.7035 15.1655 50.8068 15.0777 51.8003 14.6566C52.2668 14.4644 52.6663 14.1391 52.9492 13.7214C53.232 13.3037 53.3857 12.8119 53.391 12.3075C53.391 10.6063 51.5721 9.98776 49.7973 9.64901C48.513 9.41725 47.26 9.03666 46.0637 8.51494C45.4235 8.16578 44.8906 7.64879 44.5221 7.01953C44.1536 6.39027 43.9636 5.67251 43.9723 4.94335C43.9739 4.10603 44.2308 3.2891 44.7087 2.60157C45.2101 1.94203 45.8683 1.41808 46.6234 1.0772C47.824 0.52245 49.1675 0.355157 50.4674 0.598532C52.053 0.8937 53.5333 1.5996 54.7607 2.64575L53.4646 4.2143C51.1228 2.27755 48.8473 2.23336 47.485 2.87404C47.0687 3.03765 46.7084 3.31775 46.4472 3.68083C46.186 4.04391 46.035 4.47457 46.0122 4.92126C46.0122 6.46036 47.3303 7.05685 49.4291 7.51342C50.7167 7.72022 51.9718 8.09403 53.1627 8.6254C53.849 8.96209 54.4253 9.48709 54.8243 10.1391C55.2233 10.7911 55.4286 11.5431 55.4161 12.3075C55.4294 13.2165 55.1592 14.1071 54.6429 14.8554C54.1124 15.553 53.4163 16.1072 52.6178 16.4682C51.7596 16.8793 50.8146 17.0763 49.8636 17.0426C49.3139 17.0359 48.7662 16.9742 48.2288 16.8585" fill="#606060"/>
<path id="Vector_4" d="M59.7607 0.694824H69.9968V2.65368H61.808V6.44619H68.9511V8.47132H61.808V14.8854H69.7906V16.8885H59.7607V0.694824Z" fill="#606060"/>
<path id="Vector_5" d="M103.282 8.67682C103.279 10.3505 102.78 11.9858 101.849 13.3762C100.917 14.7666 99.5943 15.8498 98.0475 16.489C96.5006 17.1281 94.7991 17.2946 93.1577 16.9674C91.5163 16.6401 90.0086 15.8338 88.8252 14.6504C87.6417 13.4669 86.8354 11.9593 86.5082 10.3179C86.1809 8.67646 86.3474 6.9749 86.9866 5.42805C87.6257 3.8812 88.7089 2.55842 90.0993 1.62674C91.4897 0.695072 93.125 0.196286 94.7987 0.193372C95.9133 0.191432 97.0173 0.409539 98.0475 0.835185C99.0776 1.26083 100.014 1.88564 100.802 2.67379C101.59 3.46194 102.215 4.39791 102.64 5.42805C103.066 6.45818 103.284 7.56221 103.282 8.67682ZM101.213 8.67682C101.208 7.40917 100.829 6.17125 100.121 5.11936C99.4137 4.06747 98.4104 3.24879 97.238 2.76671C96.0656 2.28462 94.7766 2.16075 93.5339 2.41073C92.2911 2.66071 91.1503 3.27333 90.2555 4.17124C89.3607 5.06914 88.752 6.21206 88.5063 7.45568C88.2605 8.69929 88.3889 9.98782 88.875 11.1586C89.3611 12.3293 90.1832 13.3298 91.2375 14.0336C92.2918 14.7374 93.5311 15.113 94.7987 15.113C96.5001 15.1014 98.1281 14.4189 99.3291 13.2137C100.53 12.0086 101.207 10.3782 101.213 8.67682Z" fill="#606060"/>
<path id="Vector_6" d="M107.104 0.694824H109.152V14.9075H118.018V16.8885H107.104V0.694824Z" fill="#606060"/>
<path id="Vector_7" d="M124.506 0.694824H122.459V16.8885H124.506V0.694824Z" fill="#606060"/>
<path id="Vector_8" d="M133.667 16.8656C131.876 16.4694 130.216 15.6228 128.844 14.406L130.184 12.889C131.29 13.881 132.631 14.5753 134.08 14.9067C135.125 15.1658 136.226 15.0779 137.217 14.6564C137.688 14.47 138.094 14.148 138.382 13.7312C138.67 13.3144 138.829 12.8214 138.837 12.3146C138.837 10.6135 137.018 9.99488 135.243 9.65613C133.959 9.42437 132.706 9.04378 131.51 8.52206C130.867 8.17329 130.332 7.65557 129.962 7.02482C129.592 6.39407 129.401 5.67425 129.411 4.94311C129.412 4.10578 129.669 3.28886 130.147 2.60132C130.647 1.94361 131.303 1.41992 132.054 1.07695C133.258 0.522563 134.604 0.355314 135.906 0.598288C137.491 0.893456 138.972 1.59935 140.199 2.64551L138.903 4.21406C136.561 2.2773 134.286 2.23312 132.923 2.8738C132.507 3.0374 132.147 3.31751 131.886 3.68059C131.624 4.04366 131.473 4.47432 131.451 4.92102C131.451 6.46011 132.769 7.05661 134.86 7.51318C136.15 7.71886 137.408 8.0927 138.601 8.62516C139.287 8.96184 139.864 9.48684 140.263 10.1388C140.662 10.7908 140.867 11.5429 140.855 12.3072C140.876 13.2119 140.619 14.1013 140.118 14.8552C139.588 15.5527 138.892 16.107 138.093 16.4679C137.235 16.879 136.29 17.0761 135.339 17.0423C134.789 17.0356 134.241 16.974 133.704 16.8582" fill="#606060"/>
<path id="Vector_9" d="M9.22845 1.8289C8.505 1.1068 7.52588 0.699276 6.50373 0.694824H0.855469V16.8958H2.8806V2.67577H6.50373C6.99272 2.68927 7.45679 2.89453 7.79573 3.24725C8.13467 3.59997 8.32129 4.07184 8.3153 4.56098C8.31733 5.04616 8.12851 5.51269 7.78959 5.85988C7.45067 6.20706 6.98882 6.40707 6.50373 6.41673H4.11777V8.40504H6.50373C7.26586 8.40557 8.01102 8.17998 8.64488 7.75682C9.27874 7.33365 9.77281 6.73195 10.0645 6.02786C10.3563 5.32377 10.4325 4.54895 10.2837 3.8015C10.1349 3.05404 9.76763 2.36754 9.22845 1.8289Z" fill="#606060"/>
<path id="Vector_10" d="M82.2509 1.8289C81.5252 1.10569 80.5434 0.698135 79.5188 0.694824H73.8779V16.8958H75.9031V2.67577H79.5188C80.0091 2.68736 80.475 2.8918 80.8156 3.24472C81.1561 3.59765 81.3437 4.0706 81.3378 4.56098C81.3398 5.04741 81.1499 5.51503 80.8094 5.86242C80.4689 6.20982 80.0052 6.40898 79.5188 6.41673H77.1402V8.40504H79.5188C80.2816 8.40703 81.0278 8.1825 81.6628 7.75989C82.2977 7.33729 82.793 6.73566 83.0856 6.03127C83.3782 5.32688 83.4551 4.55145 83.3065 3.8033C83.1579 3.05516 82.7905 2.36798 82.2509 1.8289Z" fill="#606060"/>
<path id="Vector_11" d="M26.2319 30.8427V30.9605H21.7324C21.7447 31.2035 21.8058 31.4416 21.9121 31.6605C22.0184 31.8793 22.1676 32.0746 22.351 32.2345C22.7622 32.5773 23.2896 32.7487 23.8238 32.7132C24.2322 32.7116 24.6385 32.6546 25.0316 32.5438C25.4254 32.4305 25.8001 32.2592 26.1435 32.0357V33.1182C25.7717 33.3478 25.3669 33.5191 24.9432 33.6263C24.5217 33.7303 24.0886 33.7798 23.6545 33.7736C23.1041 33.7799 22.5597 33.6589 22.0638 33.4201C21.5921 33.1876 21.1925 32.8312 20.9077 32.3891C20.614 31.9197 20.4654 31.3741 20.4805 30.8206C20.4725 30.3059 20.5994 29.7981 20.8487 29.3478C21.0936 28.9127 21.456 28.5555 21.8944 28.3168C22.3788 28.0583 22.9215 27.929 23.4704 27.9412C23.9682 27.934 24.4597 28.0531 24.899 28.2873C25.3243 28.5125 25.6711 28.8619 25.8931 29.2889C26.1383 29.7689 26.255 30.3042 26.2319 30.8427ZM23.4262 28.9133C23.0102 28.9037 22.6047 29.0449 22.2847 29.3109C22.1344 29.4312 22.01 29.5806 21.9189 29.7502C21.8278 29.9198 21.7719 30.106 21.7545 30.2977H24.98C24.9706 29.9144 24.8121 29.5498 24.5382 29.2815C24.2271 29.0231 23.83 28.8916 23.4262 28.9133Z" fill="#606060"/>
<path id="Vector_12" d="M32.7935 27.9488C33.4684 27.9529 34.1335 28.1116 34.7376 28.4128V29.5247C34.4115 29.3459 34.0717 29.1932 33.7214 29.0682C33.4511 28.9759 33.1675 28.9286 32.8818 28.9282C32.6704 28.912 32.4587 28.9554 32.2706 29.0534C32.2139 29.08 32.1655 29.1214 32.1305 29.1732C32.0955 29.2251 32.0752 29.2855 32.0718 29.348C32.0691 29.4451 32.0975 29.5406 32.1528 29.6205C32.2443 29.7418 32.3628 29.8401 32.4989 29.9077C32.7697 30.0781 33.05 30.233 33.3384 30.3716C33.785 30.5865 34.203 30.8561 34.5829 31.1743C34.7333 31.2966 34.8533 31.4519 34.9338 31.6282C35.0142 31.8044 35.053 31.9969 35.0469 32.1905C35.0435 32.4518 34.9669 32.7069 34.826 32.927C34.6457 33.2003 34.3899 33.4152 34.0896 33.5455C33.6962 33.7208 33.268 33.8039 32.8377 33.7885C32.5074 33.7854 32.1787 33.7434 31.8582 33.6634C31.4669 33.5613 31.085 33.4258 30.7168 33.2583V32.0727C31.0382 32.2833 31.3814 32.4586 31.7404 32.5956C32.0641 32.7255 32.408 32.7978 32.7567 32.8091C33.0117 32.8273 33.2668 32.7738 33.4931 32.6545C33.5632 32.621 33.623 32.5691 33.6658 32.5042C33.7086 32.4393 33.7329 32.364 33.7361 32.2863C33.7414 32.174 33.7104 32.0629 33.6477 31.9696C33.5292 31.8465 33.3926 31.7422 33.2427 31.6603C33.0365 31.5351 32.6904 31.3437 32.2117 31.0933C31.8174 30.901 31.4528 30.653 31.1292 30.3569C30.9968 30.2221 30.8958 30.0597 30.8335 29.8814C30.7712 29.703 30.7491 29.5131 30.7688 29.3252C30.7885 29.1373 30.8495 28.956 30.9475 28.7945C31.0454 28.6329 31.1779 28.495 31.3354 28.3907C31.7622 28.0923 32.2729 27.9375 32.7935 27.9488Z" fill="#606060"/>
<path id="Vector_13" d="M44.5174 28.3389V29.5245C44.2338 29.3586 43.9325 29.2252 43.619 29.1268C43.3325 29.0405 43.0345 28.9983 42.7353 29.0017C42.3696 28.9886 42.0074 29.0778 41.6896 29.2594C41.4124 29.4256 41.1838 29.6618 41.0268 29.9443C40.8748 30.2244 40.7962 30.5386 40.7986 30.8574C40.7804 31.3495 40.9578 31.8287 41.2919 32.1903C41.5124 32.3966 41.774 32.5538 42.0596 32.6515C42.3452 32.7492 42.6483 32.7853 42.9489 32.7574C43.2341 32.7612 43.5186 32.7291 43.7957 32.6616C44.0809 32.585 44.3612 32.4916 44.6353 32.3818V33.479C44.0372 33.6922 43.4071 33.8018 42.7721 33.8031C42.1122 33.8309 41.4567 33.6835 40.8722 33.3759C40.4191 33.1173 40.0528 32.7304 39.8191 32.264C39.61 31.8558 39.499 31.4044 39.4951 30.9458C39.481 30.3884 39.6212 29.8379 39.9001 29.3551C40.1613 28.9059 40.5477 28.5425 41.0121 28.3094C41.5192 28.0643 42.0764 27.9407 42.6396 27.9486C42.9413 27.9473 43.2423 27.9769 43.538 28.037C43.8723 28.1104 44.1998 28.2114 44.5174 28.3389Z" fill="#606060"/>
<path id="Vector_14" d="M55.9094 30.8727C55.9274 31.4546 55.7425 32.0247 55.3866 32.4854C55.0481 32.9215 54.5976 33.2574 54.0831 33.4575C53.5714 33.6675 53.0235 33.7751 52.4704 33.7741C51.8313 33.7898 51.1985 33.6455 50.6293 33.3544C50.1487 33.1049 49.7461 32.7278 49.4658 32.2645C49.2119 31.858 49.0768 31.3887 49.0755 30.9095C49.0672 30.3754 49.2157 29.8505 49.5026 29.3999C49.7967 28.9392 50.2155 28.5714 50.7104 28.3394C51.2673 28.0893 51.8709 27.96 52.4814 27.96C53.0919 27.96 53.6956 28.0893 54.2525 28.3394C54.7435 28.5665 55.1635 28.9229 55.4676 29.3704C55.7611 29.816 55.9149 30.3391 55.9094 30.8727ZM50.3642 30.8727C50.3547 31.135 50.404 31.3962 50.5085 31.637C50.613 31.8778 50.77 32.0922 50.9681 32.2645C51.3981 32.6186 51.9433 32.8021 52.4998 32.78C53.0599 32.8062 53.6077 32.6104 54.0242 32.235C54.2147 32.061 54.3654 31.8479 54.4658 31.6102C54.5662 31.3725 54.614 31.1159 54.606 30.858C54.6242 30.5874 54.576 30.3165 54.4656 30.0687C54.3553 29.821 54.186 29.6041 53.9727 29.4367C53.5294 29.1051 52.9868 28.9338 52.4336 28.9506C51.8944 28.934 51.3687 29.1207 50.9607 29.4735C50.765 29.6489 50.6102 29.8651 50.5071 30.1069C50.4041 30.3486 50.3553 30.61 50.3642 30.8727Z" fill="#606060"/>
<path id="Vector_15" d="M60.7178 33.6638V25.1509H61.9844V33.6638H60.7178Z" fill="#606060"/>
<path id="Vector_16" d="M71.278 29.7608V32.5812C71.278 32.758 71.3516 32.8463 71.521 32.8463C71.7631 32.8007 71.9905 32.6971 72.1838 32.5444V33.3471C71.787 33.6031 71.3299 33.7504 70.8582 33.7742C70.6702 33.8006 70.479 33.7576 70.3204 33.6533C70.1618 33.5489 70.0467 33.3903 69.9966 33.2072C69.4937 33.5679 68.8923 33.7658 68.2734 33.7742C67.8599 33.788 67.4568 33.6431 67.1467 33.3692C67.0048 33.2519 66.8908 33.1045 66.8131 32.9376C66.7354 32.7707 66.6959 32.5886 66.6975 32.4045C66.687 32.229 66.7144 32.0533 66.7779 31.8893C66.8415 31.7254 66.9396 31.5771 67.0657 31.4545C67.3499 31.197 67.6795 30.9947 68.0378 30.858C68.4207 30.7107 68.9141 30.5487 69.5106 30.3794L69.9598 30.2542V29.9817C69.9707 29.8452 69.9505 29.7081 69.9008 29.5805C69.851 29.453 69.773 29.3383 69.6726 29.2453C69.4171 29.0731 69.1108 28.9926 68.8037 29.017C68.458 29.0265 68.1177 29.1041 67.8021 29.2453C67.4406 29.4107 67.1152 29.646 66.8448 29.9375V28.7151C67.1291 28.4537 67.464 28.2534 67.8288 28.1267C68.1936 28.0001 68.5806 27.9497 68.9657 27.9787C69.5722 27.9462 70.1718 28.1201 70.6668 28.4721C70.8606 28.6256 71.0166 28.8217 71.1226 29.0452C71.2286 29.2686 71.2817 29.5135 71.278 29.7608ZM68.8994 32.9936C69.3117 32.9748 69.7048 32.8134 70.0114 32.537V30.8948C69.4665 31.0294 68.9416 31.2349 68.4502 31.5061C68.3134 31.5753 68.1981 31.6804 68.1164 31.8101C68.0347 31.9398 67.9897 32.0892 67.9862 32.2425C67.9853 32.3483 68.0072 32.453 68.0504 32.5496C68.0936 32.6462 68.1571 32.7323 68.2366 32.8021C68.427 32.9442 68.6625 33.0123 68.8994 32.9936Z" fill="#606060"/>
<path id="Vector_17" d="M83.9297 33.6638V25.1509H85.1963V33.6638H83.9297Z" fill="#606060"/>
<path id="Vector_18" d="M91.7945 26.3504C91.7941 26.4393 91.774 26.5269 91.7358 26.6071C91.6976 26.6873 91.6422 26.7581 91.5736 26.8144C91.5018 26.8818 91.4173 26.9341 91.3249 26.9682C91.2326 27.0024 91.1343 27.0177 91.036 27.0132C90.8413 27.0163 90.6533 26.9422 90.5131 26.807C90.4467 26.7517 90.3932 26.6825 90.3565 26.6042C90.3198 26.526 90.3008 26.4406 90.3008 26.3541C90.3008 26.2677 90.3198 26.1823 90.3565 26.104C90.3932 26.0258 90.4467 25.9565 90.5131 25.9012C90.6545 25.7688 90.8423 25.6973 91.036 25.7024C91.2326 25.6982 91.4239 25.7664 91.5736 25.8939C91.6413 25.9494 91.6961 26.019 91.7343 26.0978C91.7724 26.1767 91.793 26.2629 91.7945 26.3504ZM90.41 33.663V28.0589H91.6767V33.663H90.41Z" fill="#606060"/>
<path id="Vector_19" d="M100.742 28.0591H102.111L99.2836 33.7736H98.8638L95.9697 28.0591H97.3542L99.07 31.5055L100.742 28.0591Z" fill="#606060"/>
<path id="Vector_20" d="M110.985 28.5825L110.308 29.562C110.121 29.4008 109.913 29.267 109.689 29.1643C109.501 29.0703 109.295 29.0175 109.085 29.0097C108.846 29.0195 108.612 29.0905 108.408 29.2158C108.166 29.3613 107.964 29.5636 107.819 29.805C107.647 30.0778 107.559 30.3957 107.568 30.7181V33.6638H106.316V28.0597H107.568V29.3484C107.835 28.9352 108.168 28.5693 108.555 28.2659C108.825 28.0679 109.149 27.9574 109.483 27.9492C109.738 27.9567 109.989 28.0169 110.219 28.126C110.498 28.2359 110.756 28.3901 110.985 28.5825Z" fill="#606060"/>
<path id="Vector_21" d="M120.287 30.843V30.9609H115.787C115.799 31.2039 115.86 31.4419 115.967 31.6608C116.073 31.8797 116.222 32.0749 116.406 32.2349C116.818 32.5763 117.345 32.7476 117.879 32.7135C118.289 32.712 118.698 32.655 119.094 32.5442C119.486 32.428 119.861 32.257 120.206 32.036V33.1186C119.831 33.347 119.423 33.5183 118.998 33.6267C118.576 33.7307 118.143 33.7802 117.709 33.774C117.159 33.7795 116.615 33.6585 116.119 33.4205C115.647 33.188 115.247 32.8316 114.962 32.3895C114.669 31.9201 114.52 31.3744 114.535 30.821C114.527 30.3063 114.654 29.7985 114.903 29.3481C115.15 28.9146 115.512 28.5577 115.949 28.3172C116.434 28.0596 116.976 27.9303 117.525 27.9416C118.023 27.9344 118.514 28.0535 118.954 28.2877C119.38 28.5147 119.728 28.8633 119.955 29.2892C120.195 29.771 120.309 30.3055 120.287 30.843ZM117.481 28.9137C117.065 28.904 116.659 29.0453 116.339 29.3113C116.042 29.5589 115.855 29.9133 115.817 30.2981H119.035C119.025 29.9148 118.867 29.5502 118.593 29.2819C118.282 29.0228 117.885 28.8912 117.481 28.9137Z" fill="#606060"/>
</g>
</g>
</svg>
